<?xml version="1.0" standalone="no"?>
<!DOCTYPE svg PUBLIC "-//W3C//DTD SVG 20010904//EN"
 "http://www.w3.org/TR/2001/REC-SVG-20010904/DTD/svg10.dtd">
<svg version="1.0" xmlns="http://www.w3.org/2000/svg"
 width="512.000000pt" height="512.000000pt" viewBox="0 0 512.000000 512.000000"
 preserveAspectRatio="xMidYMid meet">
<metadata>
Created by potrace 1.14, written by Peter Selinger 2001-2017
</metadata>
<g transform="translate(0.000000,512.000000) scale(0.100000,-0.100000)"
fill="#000000" stroke="none">
<path d="M105 4942 c-38 -13 -73 -43 -89 -77 -15 -30 -16 -224 -16 -2032 0
-2149 -2 -2040 50 -2179 65 -175 214 -336 385 -414 28 -12 88 -33 135 -46 l85
-22 1895 -1 c1584 0 1906 2 1965 14 188 37 367 157 477 317 40 60 90 168 104
229 4 19 10 41 13 49 3 8 7 688 8 1510 4 1684 10 1547 -72 1596 l-42 24 -586
0 -587 0 0 455 c0 503 -1 509 -63 556 l-32 24 -1805 2 c-993 0 -1814 -2 -1825
-5z m3427 -2224 l3 -1933 28 -83 c29 -87 59 -149 97 -201 l21 -31 -1493 0
c-1605 0 -1536 -2 -1645 51 -103 51 -206 183 -233 302 -6 26 -10 751 -10 1935
l0 1892 1615 0 1615 0 2 -1932z m1288 -480 c0 -1481 2 -1421 -52 -1528 -13
-25 -50 -72 -83 -105 -98 -98 -187 -132 -356 -134 -166 -2 -263 33 -364 134
-63 62 -98 124 -121 210 -11 41 -14 303 -14 1423 l0 1372 495 0 495 0 0 -1372z"/>
<path d="M732 4209 c-72 -36 -101 -122 -66 -192 22 -42 42 -61 83 -75 25 -9
325 -12 1178 -12 1103 0 1145 1 1181 19 41 21 82 83 82 125 0 43 -29 102 -63
127 l-32 24 -1160 3 -1160 2 -43 -21z"/>
<path d="M735 3573 c-38 -20 -49 -32 -69 -70 -34 -68 -7 -152 62 -191 l40 -22
1148 0 c1146 0 1148 0 1191 21 73 35 103 121 67 192 -22 42 -42 61 -83 75 -25
9 -325 12 -1180 12 -1033 -1 -1149 -2 -1176 -17z"/>
<path d="M1851 2931 c-18 -10 -44 -35 -57 -57 l-24 -39 0 -589 c0 -583 0 -590
21 -634 16 -33 32 -49 63 -63 38 -17 77 -19 629 -19 565 0 589 1 626 20 27 13
46 33 60 63 21 43 21 54 21 631 0 556 -1 589 -19 624 -11 22 -35 46 -59 60
l-40 22 -593 0 c-552 -1 -596 -2 -628 -19z m1039 -691 l0 -410 -410 0 -410 0
0 410 0 410 410 0 410 0 0 -410z"/>
<path d="M733 2692 c-42 -23 -73 -64 -80 -107 -8 -48 20 -116 60 -146 32 -24
33 -24 312 -27 248 -3 283 -1 318 14 43 20 87 84 87 127 0 44 -29 102 -63 128
-32 24 -33 24 -317 26 -255 3 -288 1 -317 -15z"/>
<path d="M735 2053 c-40 -22 -53 -36 -70 -77 -33 -78 -5 -151 73 -190 28 -14
70 -16 309 -16 267 1 278 2 307 23 47 33 64 58 72 105 10 67 -26 132 -89 160
-20 8 -107 12 -300 12 -230 -1 -277 -3 -302 -17z"/>
<path d="M731 1169 c-48 -29 -58 -41 -71 -86 -22 -74 7 -142 77 -177 29 -14
142 -16 1183 -16 1110 0 1152 1 1188 19 41 21 82 83 82 125 0 43 -29 102 -63
127 l-32 24 -1165 3 c-1164 2 -1165 2 -1199 -19z"/>
</g>
</svg>
